<?xml version="1.0" encoding="UTF-8" standalone="no"?>
<svg
   xmlns:dc="http://purl.org/dc/elements/1.1/"
   xmlns:cc="http://creativecommons.org/ns#"
   xmlns:rdf="http://www.w3.org/1999/02/22-rdf-syntax-ns#"
   xmlns:svg="http://www.w3.org/2000/svg"
   xmlns="http://www.w3.org/2000/svg"
   xmlns:sodipodi="http://sodipodi.sourceforge.net/DTD/sodipodi-0.dtd"
   xmlns:inkscape="http://www.inkscape.org/namespaces/inkscape"
   width="33.866665mm"
   height="33.866665mm"
   viewBox="0 0 33.866666 33.866668"
   version="1.1"
   id="svg8"
   inkscape:version="1.0.1 (unknown)"
   sodipodi:docname="search.svg">
  <defs
     id="defs2" />
  <sodipodi:namedview
     id="base"
     pagecolor="#ffffff"
     bordercolor="#666666"
     borderopacity="1.0"
     inkscape:pageopacity="0.0"
     inkscape:pageshadow="2"
     inkscape:zoom="3.959798"
     inkscape:cx="42.039733"
     inkscape:cy="75.817339"
     inkscape:document-units="mm"
     inkscape:current-layer="layer1"
     inkscape:document-rotation="0"
     showgrid="false"
     units="mm"
     inkscape:pagecheckerboard="true"
     inkscape:window-width="1854"
     inkscape:window-height="1046"
     inkscape:window-x="0"
     inkscape:window-y="0"
     inkscape:window-maximized="1" />
  <metadata
     id="metadata5">
    <rdf:RDF>
      <cc:Work
         rdf:about="">
        <dc:format>image/svg+xml</dc:format>
        <dc:type
           rdf:resource="http://purl.org/dc/dcmitype/StillImage" />
        <dc:title></dc:title>
      </cc:Work>
    </rdf:RDF>
  </metadata>
  <g
     inkscape:label="Layer 1"
     inkscape:groupmode="layer"
     id="layer1">
    <path
       id="path833"
       style="fill:#ffffff;fill-opacity:1;stroke-width:0.231297"
       d="M 21.043589,0 A -12.803929,12.803929 0 0 1 33.847605,12.804018 -12.803929,12.803929 0 0 1 21.043589,25.608034 -12.803929,12.803929 0 0 1 8.2395709,12.804018 -12.803929,12.803929 0 0 1 21.043589,0 Z m 0.162925,1.8422213 a -10.799095,10.799095 0 0 0 -10.79887,10.7988707 -10.799095,10.799095 0 0 0 10.79887,10.79887 -10.799095,10.799095 0 0 0 10.79887,-10.79887 -10.799095,10.799095 0 0 0 -10.79887,-10.7988707 z" />
    <rect
       style="fill:#ffffff;fill-opacity:1;stroke-width:0;stroke-miterlimit:4;stroke-dasharray:none"
       id="rect858"
       width="2.1750848"
       height="17.584326"
       x="-24.809502"
       y="5.049736"
       transform="matrix(-0.70132683,-0.71283987,-0.7013378,0.71282907,0,0)" />
  </g>
</svg>
