<?xml version="1.0" encoding="UTF-8" standalone="no"?>
<svg
   xmlns:dc="http://purl.org/dc/elements/1.1/"
   xmlns:cc="http://creativecommons.org/ns#"
   xmlns:rdf="http://www.w3.org/1999/02/22-rdf-syntax-ns#"
   xmlns:svg="http://www.w3.org/2000/svg"
   xmlns="http://www.w3.org/2000/svg"
   xmlns:sodipodi="http://sodipodi.sourceforge.net/DTD/sodipodi-0.dtd"
   xmlns:inkscape="http://www.inkscape.org/namespaces/inkscape"
   width="20mm"
   height="20mm"
   viewBox="0 0 20 20"
   version="1.1"
   id="svg8"
   inkscape:version="1.0 (unknown)"
   sodipodi:docname="akyuu_vinyl.svg">
  <defs
     id="defs2" />
  <sodipodi:namedview
     id="base"
     pagecolor="#ffffff"
     bordercolor="#666666"
     borderopacity="1.0"
     inkscape:pageopacity="0.0"
     inkscape:pageshadow="2"
     inkscape:zoom="2.8"
     inkscape:cx="-20.123338"
     inkscape:cy="34.462265"
     inkscape:document-units="mm"
     inkscape:current-layer="layer1"
     inkscape:document-rotation="0"
     showgrid="false"
     inkscape:window-width="1854"
     inkscape:window-height="1047"
     inkscape:window-x="0"
     inkscape:window-y="0"
     inkscape:window-maximized="1" />
  <metadata
     id="metadata5">
    <rdf:RDF>
      <cc:Work
         rdf:about="">
        <dc:format>image/svg+xml</dc:format>
        <dc:type
           rdf:resource="http://purl.org/dc/dcmitype/StillImage" />
        <dc:title></dc:title>
      </cc:Work>
    </rdf:RDF>
  </metadata>
  <g
     inkscape:label="Layer 1"
     inkscape:groupmode="layer"
     id="layer1">
    <circle
       r="8.2000046"
       cy="10"
       cx="10"
       id="path841"
       style="fill:#000000;stroke-width:0.371822" />
    <path
       d="m 9.9190268,2.1986882 a 7.8014233,7.8014233 0 0 0 -7.7203905,7.801001 7.8014233,7.8014233 0 0 0 7.8010005,7.8017268 7.8014233,7.8014233 0 0 0 7.8017272,-7.8017268 7.8014233,7.8014233 0 0 0 -7.8017272,-7.801001 7.8014233,7.8014233 0 0 0 -0.08061,0 z m 0.0138,0.3754533 a 7.4257366,7.4257366 0 0 1 0.06681,0 A 7.4257366,7.4257366 0 0 1 17.425185,9.9996892 7.4257366,7.4257366 0 0 1 9.9996368,17.425237 7.4257366,7.4257366 0 0 1 2.5740895,9.9996892 7.4257366,7.4257366 0 0 1 9.9328248,2.5741415 Z"
       style="fill:#ffffff;fill-opacity:0.2;stroke-width:0.353748"
       id="circle858" />
    <path
       id="path882"
       style="fill:#ffffff;fill-opacity:0.2;stroke-width:0.303741"
       d="M 9.9304729,3.3015123 A 6.6985832,6.6985832 0 0 0 3.3014681,9.9997327 6.6985832,6.6985832 0 0 0 9.9996879,16.698577 6.6985832,6.6985832 0 0 0 16.698532,9.9997327 6.6985832,6.6985832 0 0 0 9.9996879,3.3015123 a 6.6985832,6.6985832 0 0 0 -0.06921,0 z m 0.0118,0.3223776 a 6.376005,6.376005 0 0 1 0.05737,0 A 6.376005,6.376005 0 0 1 16.375486,9.9997327 6.376005,6.376005 0 0 1 9.9996429,16.375576 6.376005,6.376005 0 0 1 3.6238002,9.9997327 6.376005,6.376005 0 0 1 9.9422769,3.6238899 Z" />
    <path
       d="M 9.941442,4.3582842 A 5.6417962,5.6417962 0 0 0 4.3582471,9.9997749 5.6417962,5.6417962 0 0 0 9.999737,15.641791 5.6417962,5.6417962 0 0 0 15.641753,9.9997749 5.6417962,5.6417962 0 0 0 9.999737,4.3582842 a 5.6417962,5.6417962 0 0 0 -0.05829,0 z m 0.01,0.2715184 a 5.3701089,5.3701089 0 0 1 0.04831,0 5.3701089,5.3701089 0 0 1 5.369955,5.3699723 A 5.3701089,5.3701089 0 0 1 9.999734,15.369748 5.3701089,5.3701089 0 0 1 4.6297618,9.9997749 5.3701089,5.3701089 0 0 1 9.95142,4.6298026 Z"
       style="fill:#ffffff;fill-opacity:0.2;stroke-width:0.255822"
       id="path884" />
    <path
       id="path886"
       style="fill:#ffffff;fill-opacity:0.2;stroke-width:0.206837"
       d="M 9.9526548,5.4385567 A 4.5615085,4.5615085 0 0 0 5.4385272,9.9998183 4.5615085,4.5615085 0 0 0 9.9997878,14.561504 4.5615085,4.5615085 0 0 0 14.561473,9.9998183 4.5615085,4.5615085 0 0 0 9.9997878,5.4385567 a 4.5615085,4.5615085 0 0 0 -0.04714,0 z m 0.008,0.2195284 a 4.3418437,4.3418437 0 0 1 0.03907,0 A 4.3418437,4.3418437 0 0 1 14.341459,9.9998183 4.3418437,4.3418437 0 0 1 9.9997248,14.341552 4.3418437,4.3418437 0 0 1 5.6579922,9.9998183 4.3418437,4.3418437 0 0 1 9.9606608,5.6580851 Z" />
    <path
       d="M 9.9631263,6.4474315 A 3.5526192,3.5526192 0 0 0 6.4474087,9.9998587 3.5526192,3.5526192 0 0 0 9.9998343,13.552616 3.5526192,3.5526192 0 0 0 13.552591,9.9998587 3.5526192,3.5526192 0 0 0 9.9998343,6.4474315 a 3.5526192,3.5526192 0 0 0 -0.03671,0 z m 0.0062,0.1709743 a 3.3815387,3.3815387 0 0 1 0.03042,0 A 3.3815387,3.3815387 0 0 1 13.3812,9.9998587 3.3815387,3.3815387 0 0 1 9.9997463,13.381312 3.3815387,3.3815387 0 0 1 6.6182947,9.9998587 3.3815387,3.3815387 0 0 1 9.9693213,6.6184058 Z"
       style="fill:#ffffff;fill-opacity:0.2;stroke-width:0.161089"
       id="path888" />
    <path
       id="path890"
       style="fill:#ffffff;fill-opacity:0.2;stroke-width:0.115294"
       d="M 9.9736078,7.45737 A 2.5426661,2.5426661 0 0 0 7.4573542,9.9998996 2.5426661,2.5426661 0 0 0 9.9998818,12.542664 2.5426661,2.5426661 0 0 0 12.542646,9.9998996 2.5426661,2.5426661 0 0 0 9.9998818,7.45737 a 2.5426661,2.5426661 0 0 0 -0.02628,0 z m 0.0044,0.122369 a 2.420221,2.420221 0 0 1 0.02178,0 A 2.420221,2.420221 0 0 1 12.419948,9.9998996 2.420221,2.420221 0 0 1 9.9997878,12.420059 2.420221,2.420221 0 0 1 7.5796282,9.9998996 2.420221,2.420221 0 0 1 9.9780108,7.579739 Z" />
    <circle
       style="fill:#ff5599;fill-opacity:1;stroke-width:0.0672294"
       id="circle892"
       cx="10"
       cy="10"
       r="1.4826519" />
    <circle
       r="0.23907359"
       cy="10"
       cx="10"
       id="circle894"
       style="fill:#ffffff;fill-opacity:1;stroke-width:0.0108406" />
  </g>
</svg>
