<?xml version="1.0" encoding="UTF-8" standalone="no"?>
<svg
   xmlns:dc="http://purl.org/dc/elements/1.1/"
   xmlns:cc="http://creativecommons.org/ns#"
   xmlns:rdf="http://www.w3.org/1999/02/22-rdf-syntax-ns#"
   xmlns:svg="http://www.w3.org/2000/svg"
   xmlns="http://www.w3.org/2000/svg"
   xmlns:sodipodi="http://sodipodi.sourceforge.net/DTD/sodipodi-0.dtd"
   xmlns:inkscape="http://www.inkscape.org/namespaces/inkscape"
   width="56mm"
   height="20mm"
   viewBox="0 0 56 20"
   version="1.1"
   id="svg8"
   inkscape:version="1.0 (unknown)"
   sodipodi:docname="akyuu.svg">
  <defs
     id="defs2" />
  <sodipodi:namedview
     id="base"
     pagecolor="#ffffff"
     bordercolor="#666666"
     borderopacity="1.0"
     inkscape:pageopacity="0.0"
     inkscape:pageshadow="2"
     inkscape:zoom="1.979899"
     inkscape:cx="122.72"
     inkscape:cy="64.841423"
     inkscape:document-units="mm"
     inkscape:current-layer="layer1"
     inkscape:document-rotation="0"
     showgrid="false"
     inkscape:window-width="1854"
     inkscape:window-height="1047"
     inkscape:window-x="0"
     inkscape:window-y="0"
     inkscape:window-maximized="1" />
  <metadata
     id="metadata5">
    <rdf:RDF>
      <cc:Work
         rdf:about="">
        <dc:format>image/svg+xml</dc:format>
        <dc:type
           rdf:resource="http://purl.org/dc/dcmitype/StillImage" />
        <dc:title></dc:title>
      </cc:Work>
    </rdf:RDF>
  </metadata>
  <g
     inkscape:label="Layer 1"
     inkscape:groupmode="layer"
     id="layer1">
    <text
       xml:space="preserve"
       style="font-style:normal;font-weight:normal;font-size:10.5833px;line-height:1.25;font-family:sans-serif;text-align:center;text-anchor:middle;fill:#ff5599;fill-opacity:1;stroke:none;stroke-width:0.264583"
       x="39.571808"
       y="12.723339"
       id="text12"><tspan
         sodipodi:role="line"
         id="tspan10"
         x="40.657009"
         y="12.723339"
         style="font-style:normal;font-variant:normal;font-weight:normal;font-stretch:normal;font-family:'SF Pro Display';-inkscape-font-specification:'SF Pro Display';text-align:center;text-anchor:middle;fill:#ff5599;fill-opacity:1;stroke-width:0.264583">Akyuu </tspan></text>
    <rect
       style="fill:#ff5599;fill-rule:evenodd;stroke-width:0.0930833"
       id="rect14"
       width="0.17270225"
       height="19.293806"
       x="21.966507"
       y="0.35309696" />
    <circle
       r="8.2000046"
       cy="10"
       cx="10.937375"
       id="path841"
       style="fill:#000000;stroke-width:0.371822" />
    <path
       d="m 10.856661,2.1986882 a 7.8014233,7.8014233 0 0 0 -7.7203905,7.801001 7.8014233,7.8014233 0 0 0 7.8010005,7.8017268 7.8014233,7.8014233 0 0 0 7.801727,-7.8017268 7.8014233,7.8014233 0 0 0 -7.801727,-7.801001 7.8014233,7.8014233 0 0 0 -0.08061,0 z m 0.0138,0.3754533 a 7.4257366,7.4257366 0 0 1 0.06681,0 7.4257366,7.4257366 0 0 1 7.425548,7.4255477 A 7.4257366,7.4257366 0 0 1 10.937271,17.425237 7.4257366,7.4257366 0 0 1 3.5117237,9.9996892 7.4257366,7.4257366 0 0 1 10.870459,2.5741415 Z"
       style="fill:#ffffff;fill-opacity:0.2;stroke-width:0.353748"
       id="circle858" />
    <path
       id="path882"
       style="fill:#ffffff;fill-opacity:0.2;stroke-width:0.303741"
       d="m 10.868107,3.3015122 a 6.6985832,6.6985832 0 0 0 -6.6290048,6.6982204 6.6985832,6.6985832 0 0 0 6.6982198,6.6988444 6.6985832,6.6985832 0 0 0 6.698844,-6.6988444 6.6985832,6.6985832 0 0 0 -6.698844,-6.6982204 6.6985832,6.6985832 0 0 0 -0.06921,0 z m 0.0118,0.3223776 a 6.376005,6.376005 0 0 1 0.05737,0 A 6.376005,6.376005 0 0 1 17.31312,9.9997326 6.376005,6.376005 0 0 1 10.937277,16.375576 6.376005,6.376005 0 0 1 4.5614343,9.9997326 6.376005,6.376005 0 0 1 10.879911,3.6238898 Z" />
    <path
       d="m 10.879076,4.3582841 a 5.6417962,5.6417962 0 0 0 -5.5831949,5.6414907 5.6417962,5.6417962 0 0 0 5.6414899,5.6420162 5.6417962,5.6417962 0 0 0 5.642016,-5.6420162 5.6417962,5.6417962 0 0 0 -5.642016,-5.6414907 5.6417962,5.6417962 0 0 0 -0.05829,0 z m 0.01,0.2715184 a 5.3701089,5.3701089 0 0 1 0.04831,0 5.3701089,5.3701089 0 0 1 5.369955,5.3699723 A 5.3701089,5.3701089 0 0 1 10.937368,15.369748 5.3701089,5.3701089 0 0 1 5.5673958,9.9997748 5.3701089,5.3701089 0 0 1 10.889054,4.6298025 Z"
       style="fill:#ffffff;fill-opacity:0.2;stroke-width:0.255822"
       id="path884" />
    <path
       id="path886"
       style="fill:#ffffff;fill-opacity:0.2;stroke-width:0.206837"
       d="m 10.890289,5.4385566 a 4.5615085,4.5615085 0 0 0 -4.5141276,4.5612616 4.5615085,4.5615085 0 0 0 4.5612606,4.5616858 4.5615085,4.5615085 0 0 0 4.561685,-4.5616858 4.5615085,4.5615085 0 0 0 -4.561685,-4.5612616 4.5615085,4.5615085 0 0 0 -0.04714,0 z m 0.008,0.2195284 a 4.3418437,4.3418437 0 0 1 0.03907,0 4.3418437,4.3418437 0 0 1 4.341734,4.3417332 A 4.3418437,4.3418437 0 0 1 10.937359,14.341552 4.3418437,4.3418437 0 0 1 6.5956264,9.9998182 4.3418437,4.3418437 0 0 1 10.898295,5.658085 Z" />
    <path
       d="m 10.90076,6.4474315 a 3.5526192,3.5526192 0 0 0 -3.5157176,3.5524272 3.5526192,3.5526192 0 0 0 3.5524256,3.5527573 3.5526192,3.5526192 0 0 0 3.552757,-3.5527573 3.5526192,3.5526192 0 0 0 -3.552757,-3.5524272 3.5526192,3.5526192 0 0 0 -0.03671,0 z m 0.0062,0.1709743 a 3.3815387,3.3815387 0 0 1 0.03042,0 3.3815387,3.3815387 0 0 1 3.381454,3.3814529 A 3.3815387,3.3815387 0 0 1 10.93738,13.381312 3.3815387,3.3815387 0 0 1 7.5559284,9.9998587 3.3815387,3.3815387 0 0 1 10.906955,6.6184058 Z"
       style="fill:#ffffff;fill-opacity:0.2;stroke-width:0.161089"
       id="path888" />
    <path
       id="path890"
       style="fill:#ffffff;fill-opacity:0.2;stroke-width:0.115294"
       d="M 10.911242,7.4573701 A 2.5426661,2.5426661 0 0 0 8.3949884,9.9998997 2.5426661,2.5426661 0 0 0 10.937516,12.542664 2.5426661,2.5426661 0 0 0 13.48028,9.9998997 2.5426661,2.5426661 0 0 0 10.937516,7.4573701 a 2.5426661,2.5426661 0 0 0 -0.02628,0 z m 0.0044,0.122369 a 2.420221,2.420221 0 0 1 0.02178,0 2.420221,2.420221 0 0 1 2.42016,2.4201606 2.420221,2.420221 0 0 1 -2.42016,2.4201593 A 2.420221,2.420221 0 0 1 8.5172624,9.9998997 2.420221,2.420221 0 0 1 10.915645,7.5797391 Z" />
    <circle
       style="fill:#ff5599;fill-opacity:1;stroke-width:0.0672294"
       id="circle892"
       cx="10.937375"
       cy="10"
       r="1.4826519" />
    <circle
       r="0.23907359"
       cy="10"
       cx="10.937375"
       id="circle894"
       style="fill:#ffffff;fill-opacity:1;stroke-width:0.0108406" />
  </g>
</svg>
